<svg xmlns="http://www.w3.org/2000/svg" viewBox="0 0 100 140" fill="none">
  <defs>
    <linearGradient id="back-bg" x1="0" y1="0" x2="1" y2="1">
      <stop offset="0" stop-color="#b8651a"/>
      <stop offset="1" stop-color="#5a2f0a"/>
    </linearGradient>
  </defs>
  <rect x="0" y="0" width="100" height="140" rx="8" fill="url(#back-bg)"/>
  <rect x="6" y="6" width="88" height="128" rx="6" fill="none" stroke="#fff8ed" stroke-width="1.5" opacity="0.7"/>
  <g transform="translate(50 70)">
    <path d="M -20 -6 Q -14 -26 0 -20 Q 14 -26 20 -6 Q 24 10 12 20 Q 0 26 -12 20 Q -24 10 -20 -6 Z" fill="#f9c66c"/>
    <circle cx="-6" cy="-4" r="2.5" fill="#1a0f07"/>
    <circle cx="6" cy="-4" r="2.5" fill="#1a0f07"/>
    <path d="M -4 6 Q 0 10 4 6" stroke="#1a0f07" stroke-width="1.5" fill="none" stroke-linecap="round"/>
    <path d="M -18 -8 L -12 -20 L -8 -8 Z" fill="#f9c66c"/>
    <path d="M 18 -8 L 12 -20 L 8 -8 Z" fill="#f9c66c"/>
  </g>
  <text x="50" y="120" font-family="Georgia, serif" font-size="9" fill="#fff8ed" text-anchor="middle" font-weight="bold" letter-spacing="1">RENARTEFACT</text>
</svg>
