<svg xmlns="http://www.w3.org/2000/svg" viewBox="0 0 100 140" fill="none">
  <defs>
    <linearGradient id="comp-bg" x1="0" y1="0" x2="1" y2="1">
      <stop offset="0" stop-color="#a82a2a"/>
      <stop offset="1" stop-color="#601010"/>
    </linearGradient>
  </defs>
  <rect x="0" y="0" width="100" height="140" rx="8" fill="url(#comp-bg)"/>
  <rect x="6" y="6" width="88" height="128" rx="6" fill="none" stroke="#ffe8e8" stroke-width="1.5" opacity="0.7"/>
  <g transform="translate(50 58)">
    <path d="M -22 -10 Q -16 -30 -2 -22 Q 0 -24 2 -22 Q 16 -30 22 -10 Q 26 10 14 22 Q 0 30 -14 22 Q -26 10 -22 -10 Z" fill="#d98a2b"/>
    <path d="M -20 -14 L -4 -14 L -2 -6 L -20 -4 Z M 4 -14 L 20 -14 L 20 -4 L 2 -6 Z" fill="#1a0f07" opacity="0.9"/>
    <circle cx="-10" cy="-8" r="2" fill="#fff"/>
    <circle cx="10" cy="-8" r="2" fill="#fff"/>
    <path d="M -4 10 Q 0 14 4 10" stroke="#1a0f07" stroke-width="1.5" fill="none" stroke-linecap="round"/>
    <path d="M -22 -10 L -20 -18 M 22 -10 L 20 -18" stroke="#b8651a" stroke-width="2" stroke-linecap="round"/>
  </g>
  <text x="50" y="110" font-family="Georgia, serif" font-size="14" fill="#fff" text-anchor="middle" font-weight="bold" letter-spacing="1">COMPLICE</text>
  <text x="50" y="124" font-family="Georgia, serif" font-size="7" fill="#ffcdcd" text-anchor="middle" font-style="italic">Trompez les détectives</text>
</svg>
